<svg width="97" height="97" viewBox="0 0 97 97" xmlns="http://www.w3.org/2000/svg">
  <!-- FM Favicon — Icon D with eroded border -->
  <!-- Canvas: 97×97 | Icon transform: translate(13, 9.5) -->

  <rect width="97" height="97" fill="transparent"/>

  <!-- ═══ ICON D ═══ -->
  <g transform="translate(13, 9.5)" fill="#0a0a0a">
    <!-- F solid core -->
    <rect x="3" y="25" width="5" height="25"/>
    <rect x="3" y="22" width="14" height="5"/>
    <rect x="3" y="38" width="9" height="4"/>
    <!-- pixels broken from stem top -->
    <rect x="2" y="22" width="4" height="3" opacity="0.9"/>
    <rect x="1" y="19" width="3" height="3" opacity="0.75"/>
    <rect x="0" y="16" width="3" height="2" opacity="0.55"/>
    <rect x="2" y="13" width="2" height="2" opacity="0.4"/>
    <rect x="5" y="11" width="3" height="2" opacity="0.3"/>
    <rect x="9" y="9"  width="2" height="2" opacity="0.2"/>
    <rect x="12" y="7" width="2" height="2" opacity="0.12"/>
    <!-- pixels broken from stem bottom -->
    <rect x="2" y="50" width="4" height="3" opacity="0.9"/>
    <rect x="1" y="53" width="4" height="2" opacity="0.7"/>
    <rect x="3" y="56" width="3" height="2" opacity="0.5"/>
    <rect x="6" y="58" width="3" height="2" opacity="0.3"/>
    <rect x="10" y="59" width="2" height="2" opacity="0.18"/>
    <!-- pixels broken from top bar right -->
    <rect x="17" y="22" width="3" height="4" opacity="0.88"/>
    <rect x="20" y="21" width="3" height="4" opacity="0.68"/>
    <rect x="23" y="20" width="2" height="3" opacity="0.48"/>
    <rect x="22" y="24" width="2" height="3" opacity="0.38"/>
    <rect x="25" y="18" width="2" height="2" opacity="0.28"/>
    <rect x="24" y="27" width="2" height="2" opacity="0.2"/>
    <!-- pixels broken from mid bar right -->
    <rect x="12" y="38" width="3" height="3" opacity="0.85"/>
    <rect x="15" y="37" width="3" height="3" opacity="0.65"/>
    <rect x="18" y="36" width="2" height="3" opacity="0.45"/>
    <rect x="17" y="40" width="2" height="3" opacity="0.35"/>
    <rect x="20" y="34" width="2" height="2" opacity="0.25"/>
    <rect x="19" y="43" width="2" height="2" opacity="0.18"/>
    <rect x="22" y="41" width="2" height="2" opacity="0.12"/>
    <!-- pixels broken from left edge -->
    <rect x="1"  y="30" width="2" height="3" opacity="0.7"/>
    <rect x="0"  y="34" width="2" height="2" opacity="0.5"/>
    <rect x="0"  y="43" width="2" height="3" opacity="0.55"/>
    <rect x="-1" y="27" width="2" height="2" opacity="0.3"/>
    <rect x="-1" y="47" width="2" height="2" opacity="0.28"/>
    <!-- reforming pixels -->
    <rect x="8"  y="14" width="3" height="2" opacity="0.5"/>
    <rect x="12" y="15" width="4" height="2" opacity="0.4"/>
    <rect x="16" y="14" width="3" height="2" opacity="0.3"/>
    <rect x="10" y="12" width="2" height="2" opacity="0.22"/>
    <rect x="20" y="38" width="3" height="2" opacity="0.45"/>
    <rect x="22" y="36" width="2" height="4" opacity="0.35"/>
    <rect x="24" y="35" width="2" height="2" opacity="0.22"/>
    <rect x="23" y="40" width="2" height="2" opacity="0.18"/>
    <rect x="8"  y="56" width="4" height="2" opacity="0.4"/>
    <rect x="13" y="57" width="3" height="2" opacity="0.28"/>
    <rect x="7"  y="59" width="2" height="2" opacity="0.2"/>
    <!-- M serif glyph -->
    <text x="27" y="55" font-family="Georgia,'Times New Roman',serif" font-size="46" font-weight="700">M</text>
  </g>

  <!-- ═══ BORDER ═══ -->
  <!-- Right side: solid full height -->
  <rect x="87" y="5"  width="5"  height="87" fill="#0a0a0a"/>

  <!-- TOP BORDER — solid right of C1 (x=48 to x=92) -->
  <rect x="48" y="5"  width="44" height="5"  fill="#0a0a0a"/>
  <!-- Zone 1 (x=35–48): thinning -->
  <rect x="35" y="5"  width="13" height="3"  fill="#0a0a0a"/>
  <rect x="38" y="8"  width="4"  height="2"  fill="#0a0a0a" opacity="0.9"/>
  <rect x="43" y="8"  width="3"  height="2"  fill="#0a0a0a" opacity="0.85"/>
  <rect x="35" y="9"  width="3"  height="1"  fill="#0a0a0a" opacity="0.7"/>
  <rect x="40" y="10" width="3"  height="2"  fill="#0a0a0a" opacity="0.6"/>
  <rect x="36" y="11" width="2"  height="2"  fill="#0a0a0a" opacity="0.4"/>
  <rect x="44" y="11" width="2"  height="2"  fill="#0a0a0a" opacity="0.35"/>
  <!-- Zone 2 (x=20–35): breaking -->
  <rect x="26" y="5"  width="9"  height="3"  fill="#0a0a0a"/>
  <rect x="20" y="5"  width="5"  height="2"  fill="#0a0a0a" opacity="0.85"/>
  <rect x="29" y="5"  width="5"  height="2"  fill="#0a0a0a" opacity="0.75"/>
  <rect x="22" y="7"  width="6"  height="2"  fill="#0a0a0a" opacity="0.6"/>
  <rect x="30" y="8"  width="4"  height="2"  fill="#0a0a0a" opacity="0.5"/>
  <rect x="24" y="10" width="4"  height="2"  fill="#0a0a0a" opacity="0.45"/>
  <rect x="31" y="11" width="3"  height="2"  fill="#0a0a0a" opacity="0.35"/>
  <rect x="20" y="12" width="3"  height="2"  fill="#0a0a0a" opacity="0.28"/>
  <rect x="27" y="13" width="3"  height="2"  fill="#0a0a0a" opacity="0.22"/>
  <rect x="18" y="6"  width="2"  height="2"  fill="#0a0a0a" opacity="0.55"/>
  <rect x="17" y="8"  width="2"  height="2"  fill="#0a0a0a" opacity="0.38"/>
  <!-- Zone 3 (x=10–20): scattered -->
  <rect x="14" y="5"  width="4"  height="2"  fill="#0a0a0a" opacity="0.7"/>
  <rect x="10" y="5"  width="3"  height="2"  fill="#0a0a0a" opacity="0.5"/>
  <rect x="17" y="5"  width="2"  height="2"  fill="#0a0a0a" opacity="0.45"/>
  <rect x="12" y="7"  width="3"  height="2"  fill="#0a0a0a" opacity="0.42"/>
  <rect x="16" y="7"  width="3"  height="2"  fill="#0a0a0a" opacity="0.32"/>
  <rect x="11" y="9"  width="2"  height="2"  fill="#0a0a0a" opacity="0.28"/>
  <rect x="15" y="10" width="2"  height="2"  fill="#0a0a0a" opacity="0.22"/>
  <rect x="13" y="12" width="2"  height="2"  fill="#0a0a0a" opacity="0.16"/>
  <rect x="13" y="3"  width="2"  height="2"  fill="#0a0a0a" opacity="0.3"/>
  <rect x="17" y="2"  width="2"  height="2"  fill="#0a0a0a" opacity="0.2"/>
  <!-- Zone 4 (x=5–10): dissolving corner -->
  <rect x="6"  y="5"  width="3"  height="2"  fill="#0a0a0a" opacity="0.55"/>
  <rect x="5"  y="7"  width="2"  height="2"  fill="#0a0a0a" opacity="0.35"/>
  <rect x="8"  y="6"  width="2"  height="2"  fill="#0a0a0a" opacity="0.28"/>
  <rect x="7"  y="8"  width="2"  height="2"  fill="#0a0a0a" opacity="0.2"/>
  <rect x="6"  y="10" width="2"  height="2"  fill="#0a0a0a" opacity="0.15"/>
  <rect x="7"  y="3"  width="2"  height="2"  fill="#0a0a0a" opacity="0.22"/>
  <rect x="5"  y="2"  width="2"  height="2"  fill="#0a0a0a" opacity="0.14"/>
  <!-- Top reforming clusters inside BTI -->
  <rect x="18" y="13" width="4"  height="2"  fill="#0a0a0a" opacity="0.3"/>
  <rect x="25" y="14" width="3"  height="2"  fill="#0a0a0a" opacity="0.25"/>
  <rect x="32" y="13" width="4"  height="2"  fill="#0a0a0a" opacity="0.2"/>
  <rect x="22" y="16" width="3"  height="2"  fill="#0a0a0a" opacity="0.18"/>
  <rect x="14" y="15" width="3"  height="2"  fill="#0a0a0a" opacity="0.22"/>
  <rect x="38" y="12" width="3"  height="2"  fill="#0a0a0a" opacity="0.28"/>

  <!-- BOTTOM BORDER — solid right of C1 -->
  <rect x="48" y="87" width="44" height="5"  fill="#0a0a0a"/>
  <!-- Zone 1 (x=35–48): thinning -->
  <rect x="35" y="89" width="13" height="3"  fill="#0a0a0a"/>
  <rect x="38" y="87" width="4"  height="2"  fill="#0a0a0a" opacity="0.9"/>
  <rect x="43" y="87" width="3"  height="2"  fill="#0a0a0a" opacity="0.85"/>
  <rect x="35" y="87" width="3"  height="1"  fill="#0a0a0a" opacity="0.7"/>
  <rect x="40" y="85" width="3"  height="2"  fill="#0a0a0a" opacity="0.6"/>
  <rect x="36" y="84" width="2"  height="2"  fill="#0a0a0a" opacity="0.4"/>
  <rect x="44" y="84" width="2"  height="2"  fill="#0a0a0a" opacity="0.35"/>
  <!-- Zone 2 (x=20–35): breaking -->
  <rect x="26" y="89" width="9"  height="3"  fill="#0a0a0a"/>
  <rect x="20" y="90" width="5"  height="2"  fill="#0a0a0a" opacity="0.85"/>
  <rect x="29" y="90" width="5"  height="2"  fill="#0a0a0a" opacity="0.75"/>
  <rect x="22" y="88" width="6"  height="2"  fill="#0a0a0a" opacity="0.6"/>
  <rect x="30" y="87" width="4"  height="2"  fill="#0a0a0a" opacity="0.5"/>
  <rect x="24" y="85" width="4"  height="2"  fill="#0a0a0a" opacity="0.45"/>
  <rect x="31" y="84" width="3"  height="2"  fill="#0a0a0a" opacity="0.35"/>
  <rect x="20" y="83" width="3"  height="2"  fill="#0a0a0a" opacity="0.28"/>
  <rect x="27" y="82" width="3"  height="2"  fill="#0a0a0a" opacity="0.22"/>
  <rect x="18" y="89" width="2"  height="2"  fill="#0a0a0a" opacity="0.55"/>
  <rect x="17" y="87" width="2"  height="2"  fill="#0a0a0a" opacity="0.38"/>
  <!-- Zone 3 (x=10–20): scattered -->
  <rect x="14" y="90" width="4"  height="2"  fill="#0a0a0a" opacity="0.7"/>
  <rect x="10" y="90" width="3"  height="2"  fill="#0a0a0a" opacity="0.5"/>
  <rect x="17" y="90" width="2"  height="2"  fill="#0a0a0a" opacity="0.45"/>
  <rect x="12" y="88" width="3"  height="2"  fill="#0a0a0a" opacity="0.42"/>
  <rect x="16" y="88" width="3"  height="2"  fill="#0a0a0a" opacity="0.32"/>
  <rect x="11" y="86" width="2"  height="2"  fill="#0a0a0a" opacity="0.28"/>
  <rect x="15" y="85" width="2"  height="2"  fill="#0a0a0a" opacity="0.22"/>
  <rect x="13" y="83" width="2"  height="2"  fill="#0a0a0a" opacity="0.16"/>
  <rect x="13" y="93" width="2"  height="2"  fill="#0a0a0a" opacity="0.3"/>
  <rect x="17" y="94" width="2"  height="2"  fill="#0a0a0a" opacity="0.2"/>
  <!-- Zone 4 (x=5–10): dissolving corner -->
  <rect x="6"  y="90" width="3"  height="2"  fill="#0a0a0a" opacity="0.55"/>
  <rect x="5"  y="88" width="2"  height="2"  fill="#0a0a0a" opacity="0.35"/>
  <rect x="8"  y="89" width="2"  height="2"  fill="#0a0a0a" opacity="0.28"/>
  <rect x="7"  y="87" width="2"  height="2"  fill="#0a0a0a" opacity="0.2"/>
  <rect x="6"  y="85" width="2"  height="2"  fill="#0a0a0a" opacity="0.15"/>
  <rect x="7"  y="93" width="2"  height="2"  fill="#0a0a0a" opacity="0.22"/>
  <rect x="5"  y="95" width="2"  height="2"  fill="#0a0a0a" opacity="0.14"/>
  <!-- Bottom reforming clusters inside BBI -->
  <rect x="18" y="82" width="4"  height="2"  fill="#0a0a0a" opacity="0.3"/>
  <rect x="25" y="81" width="3"  height="2"  fill="#0a0a0a" opacity="0.25"/>
  <rect x="32" y="82" width="4"  height="2"  fill="#0a0a0a" opacity="0.2"/>
  <rect x="22" y="79" width="3"  height="2"  fill="#0a0a0a" opacity="0.18"/>
  <rect x="14" y="80" width="3"  height="2"  fill="#0a0a0a" opacity="0.22"/>
  <rect x="38" y="83" width="3"  height="2"  fill="#0a0a0a" opacity="0.28"/>
</svg>
