<svg width="1200" height="627" viewBox="0 0 1200 627" xmlns="http://www.w3.org/2000/svg">
  <!-- Frontier Manifesto OG Image — 1200×627 -->

  <!-- Background -->
  <rect width="1200" height="627" fill="#ffffff"/>

  <!-- ═══ FAVICON — scaled 3.196x, centred in left panel ═══ -->
  <!-- favicon 97x97 → 310x310, centred at x=85–395, y=158–468 -->
  <g transform="translate(85, 158) scale(3.1959)">

    <!-- ICON D -->
    <g transform="translate(13, 9.5)" fill="#0a0a0a">
      <!-- F solid core -->
      <rect x="3" y="25" width="5" height="25"/>
      <rect x="3" y="22" width="14" height="5"/>
      <rect x="3" y="38" width="9" height="4"/>
      <!-- pixels broken from stem top -->
      <rect x="2" y="22" width="4" height="3" opacity="0.9"/>
      <rect x="1" y="19" width="3" height="3" opacity="0.75"/>
      <rect x="0" y="16" width="3" height="2" opacity="0.55"/>
      <rect x="2" y="13" width="2" height="2" opacity="0.4"/>
      <rect x="5" y="11" width="3" height="2" opacity="0.3"/>
      <rect x="9" y="9"  width="2" height="2" opacity="0.2"/>
      <rect x="12" y="7" width="2" height="2" opacity="0.12"/>
      <!-- pixels broken from stem bottom -->
      <rect x="2" y="50" width="4" height="3" opacity="0.9"/>
      <rect x="1" y="53" width="4" height="2" opacity="0.7"/>
      <rect x="3" y="56" width="3" height="2" opacity="0.5"/>
      <rect x="6" y="58" width="3" height="2" opacity="0.3"/>
      <rect x="10" y="59" width="2" height="2" opacity="0.18"/>
      <!-- pixels broken from top bar right -->
      <rect x="17" y="22" width="3" height="4" opacity="0.88"/>
      <rect x="20" y="21" width="3" height="4" opacity="0.68"/>
      <rect x="23" y="20" width="2" height="3" opacity="0.48"/>
      <rect x="22" y="24" width="2" height="3" opacity="0.38"/>
      <rect x="25" y="18" width="2" height="2" opacity="0.28"/>
      <rect x="24" y="27" width="2" height="2" opacity="0.2"/>
      <!-- pixels broken from mid bar right -->
      <rect x="12" y="38" width="3" height="3" opacity="0.85"/>
      <rect x="15" y="37" width="3" height="3" opacity="0.65"/>
      <rect x="18" y="36" width="2" height="3" opacity="0.45"/>
      <rect x="17" y="40" width="2" height="3" opacity="0.35"/>
      <rect x="20" y="34" width="2" height="2" opacity="0.25"/>
      <rect x="19" y="43" width="2" height="2" opacity="0.18"/>
      <rect x="22" y="41" width="2" height="2" opacity="0.12"/>
      <!-- pixels broken from left edge -->
      <rect x="1"  y="30" width="2" height="3" opacity="0.7"/>
      <rect x="0"  y="34" width="2" height="2" opacity="0.5"/>
      <rect x="0"  y="43" width="2" height="3" opacity="0.55"/>
      <rect x="-1" y="27" width="2" height="2" opacity="0.3"/>
      <rect x="-1" y="47" width="2" height="2" opacity="0.28"/>
      <!-- reforming pixels -->
      <rect x="8"  y="14" width="3" height="2" opacity="0.5"/>
      <rect x="12" y="15" width="4" height="2" opacity="0.4"/>
      <rect x="16" y="14" width="3" height="2" opacity="0.3"/>
      <rect x="10" y="12" width="2" height="2" opacity="0.22"/>
      <rect x="20" y="38" width="3" height="2" opacity="0.45"/>
      <rect x="22" y="36" width="2" height="4" opacity="0.35"/>
      <rect x="24" y="35" width="2" height="2" opacity="0.22"/>
      <rect x="23" y="40" width="2" height="2" opacity="0.18"/>
      <rect x="8"  y="56" width="4" height="2" opacity="0.4"/>
      <rect x="13" y="57" width="3" height="2" opacity="0.28"/>
      <rect x="7"  y="59" width="2" height="2" opacity="0.2"/>
      <!-- M serif glyph -->
      <text x="27" y="55" font-family="Georgia,'Times New Roman',serif" font-size="46" font-weight="700">M</text>
    </g>

    <!-- BORDER — right side solid -->
    <rect x="87" y="5"  width="5"  height="87" fill="#0a0a0a"/>
    <!-- TOP BORDER solid right of C1 -->
    <rect x="48" y="5"  width="44" height="5"  fill="#0a0a0a"/>
    <!-- Zone 1 -->
    <rect x="35" y="5"  width="13" height="3"  fill="#0a0a0a"/>
    <rect x="38" y="8"  width="4"  height="2"  fill="#0a0a0a" opacity="0.9"/>
    <rect x="43" y="8"  width="3"  height="2"  fill="#0a0a0a" opacity="0.85"/>
    <rect x="35" y="9"  width="3"  height="1"  fill="#0a0a0a" opacity="0.7"/>
    <rect x="40" y="10" width="3"  height="2"  fill="#0a0a0a" opacity="0.6"/>
    <rect x="36" y="11" width="2"  height="2"  fill="#0a0a0a" opacity="0.4"/>
    <rect x="44" y="11" width="2"  height="2"  fill="#0a0a0a" opacity="0.35"/>
    <!-- Zone 2 -->
    <rect x="26" y="5"  width="9"  height="3"  fill="#0a0a0a"/>
    <rect x="20" y="5"  width="5"  height="2"  fill="#0a0a0a" opacity="0.85"/>
    <rect x="29" y="5"  width="5"  height="2"  fill="#0a0a0a" opacity="0.75"/>
    <rect x="22" y="7"  width="6"  height="2"  fill="#0a0a0a" opacity="0.6"/>
    <rect x="30" y="8"  width="4"  height="2"  fill="#0a0a0a" opacity="0.5"/>
    <rect x="24" y="10" width="4"  height="2"  fill="#0a0a0a" opacity="0.45"/>
    <rect x="31" y="11" width="3"  height="2"  fill="#0a0a0a" opacity="0.35"/>
    <rect x="20" y="12" width="3"  height="2"  fill="#0a0a0a" opacity="0.28"/>
    <rect x="27" y="13" width="3"  height="2"  fill="#0a0a0a" opacity="0.22"/>
    <rect x="18" y="6"  width="2"  height="2"  fill="#0a0a0a" opacity="0.55"/>
    <rect x="17" y="8"  width="2"  height="2"  fill="#0a0a0a" opacity="0.38"/>
    <!-- Zone 3 -->
    <rect x="14" y="5"  width="4"  height="2"  fill="#0a0a0a" opacity="0.7"/>
    <rect x="10" y="5"  width="3"  height="2"  fill="#0a0a0a" opacity="0.5"/>
    <rect x="17" y="5"  width="2"  height="2"  fill="#0a0a0a" opacity="0.45"/>
    <rect x="12" y="7"  width="3"  height="2"  fill="#0a0a0a" opacity="0.42"/>
    <rect x="16" y="7"  width="3"  height="2"  fill="#0a0a0a" opacity="0.32"/>
    <rect x="11" y="9"  width="2"  height="2"  fill="#0a0a0a" opacity="0.28"/>
    <rect x="15" y="10" width="2"  height="2"  fill="#0a0a0a" opacity="0.22"/>
    <rect x="13" y="12" width="2"  height="2"  fill="#0a0a0a" opacity="0.16"/>
    <rect x="13" y="3"  width="2"  height="2"  fill="#0a0a0a" opacity="0.3"/>
    <rect x="17" y="2"  width="2"  height="2"  fill="#0a0a0a" opacity="0.2"/>
    <!-- Zone 4 -->
    <rect x="6"  y="5"  width="3"  height="2"  fill="#0a0a0a" opacity="0.55"/>
    <rect x="5"  y="7"  width="2"  height="2"  fill="#0a0a0a" opacity="0.35"/>
    <rect x="8"  y="6"  width="2"  height="2"  fill="#0a0a0a" opacity="0.28"/>
    <rect x="7"  y="8"  width="2"  height="2"  fill="#0a0a0a" opacity="0.2"/>
    <rect x="6"  y="10" width="2"  height="2"  fill="#0a0a0a" opacity="0.15"/>
    <rect x="7"  y="3"  width="2"  height="2"  fill="#0a0a0a" opacity="0.22"/>
    <rect x="5"  y="2"  width="2"  height="2"  fill="#0a0a0a" opacity="0.14"/>
    <!-- Top reforming clusters -->
    <rect x="18" y="13" width="4"  height="2"  fill="#0a0a0a" opacity="0.3"/>
    <rect x="25" y="14" width="3"  height="2"  fill="#0a0a0a" opacity="0.25"/>
    <rect x="32" y="13" width="4"  height="2"  fill="#0a0a0a" opacity="0.2"/>
    <rect x="22" y="16" width="3"  height="2"  fill="#0a0a0a" opacity="0.18"/>
    <rect x="14" y="15" width="3"  height="2"  fill="#0a0a0a" opacity="0.22"/>
    <rect x="38" y="12" width="3"  height="2"  fill="#0a0a0a" opacity="0.28"/>
    <!-- BOTTOM BORDER solid right of C1 -->
    <rect x="48" y="87" width="44" height="5"  fill="#0a0a0a"/>
    <!-- Zone 1 -->
    <rect x="35" y="89" width="13" height="3"  fill="#0a0a0a"/>
    <rect x="38" y="87" width="4"  height="2"  fill="#0a0a0a" opacity="0.9"/>
    <rect x="43" y="87" width="3"  height="2"  fill="#0a0a0a" opacity="0.85"/>
    <rect x="35" y="87" width="3"  height="1"  fill="#0a0a0a" opacity="0.7"/>
    <rect x="40" y="85" width="3"  height="2"  fill="#0a0a0a" opacity="0.6"/>
    <rect x="36" y="84" width="2"  height="2"  fill="#0a0a0a" opacity="0.4"/>
    <rect x="44" y="84" width="2"  height="2"  fill="#0a0a0a" opacity="0.35"/>
    <!-- Zone 2 -->
    <rect x="26" y="89" width="9"  height="3"  fill="#0a0a0a"/>
    <rect x="20" y="90" width="5"  height="2"  fill="#0a0a0a" opacity="0.85"/>
    <rect x="29" y="90" width="5"  height="2"  fill="#0a0a0a" opacity="0.75"/>
    <rect x="22" y="88" width="6"  height="2"  fill="#0a0a0a" opacity="0.6"/>
    <rect x="30" y="87" width="4"  height="2"  fill="#0a0a0a" opacity="0.5"/>
    <rect x="24" y="85" width="4"  height="2"  fill="#0a0a0a" opacity="0.45"/>
    <rect x="31" y="84" width="3"  height="2"  fill="#0a0a0a" opacity="0.35"/>
    <rect x="20" y="83" width="3"  height="2"  fill="#0a0a0a" opacity="0.28"/>
    <rect x="27" y="82" width="3"  height="2"  fill="#0a0a0a" opacity="0.22"/>
    <rect x="18" y="89" width="2"  height="2"  fill="#0a0a0a" opacity="0.55"/>
    <rect x="17" y="87" width="2"  height="2"  fill="#0a0a0a" opacity="0.38"/>
    <!-- Zone 3 -->
    <rect x="14" y="90" width="4"  height="2"  fill="#0a0a0a" opacity="0.7"/>
    <rect x="10" y="90" width="3"  height="2"  fill="#0a0a0a" opacity="0.5"/>
    <rect x="17" y="90" width="2"  height="2"  fill="#0a0a0a" opacity="0.45"/>
    <rect x="12" y="88" width="3"  height="2"  fill="#0a0a0a" opacity="0.42"/>
    <rect x="16" y="88" width="3"  height="2"  fill="#0a0a0a" opacity="0.32"/>
    <rect x="11" y="86" width="2"  height="2"  fill="#0a0a0a" opacity="0.28"/>
    <rect x="15" y="85" width="2"  height="2"  fill="#0a0a0a" opacity="0.22"/>
    <rect x="13" y="83" width="2"  height="2"  fill="#0a0a0a" opacity="0.16"/>
    <rect x="13" y="93" width="2"  height="2"  fill="#0a0a0a" opacity="0.3"/>
    <rect x="17" y="94" width="2"  height="2"  fill="#0a0a0a" opacity="0.2"/>
    <!-- Zone 4 -->
    <rect x="6"  y="90" width="3"  height="2"  fill="#0a0a0a" opacity="0.55"/>
    <rect x="5"  y="88" width="2"  height="2"  fill="#0a0a0a" opacity="0.35"/>
    <rect x="8"  y="89" width="2"  height="2"  fill="#0a0a0a" opacity="0.28"/>
    <rect x="7"  y="87" width="2"  height="2"  fill="#0a0a0a" opacity="0.2"/>
    <rect x="6"  y="85" width="2"  height="2"  fill="#0a0a0a" opacity="0.15"/>
    <rect x="7"  y="93" width="2"  height="2"  fill="#0a0a0a" opacity="0.22"/>
    <rect x="5"  y="95" width="2"  height="2"  fill="#0a0a0a" opacity="0.14"/>
    <!-- Bottom reforming clusters -->
    <rect x="18" y="82" width="4"  height="2"  fill="#0a0a0a" opacity="0.3"/>
    <rect x="25" y="81" width="3"  height="2"  fill="#0a0a0a" opacity="0.25"/>
    <rect x="32" y="82" width="4"  height="2"  fill="#0a0a0a" opacity="0.2"/>
    <rect x="22" y="79" width="3"  height="2"  fill="#0a0a0a" opacity="0.18"/>
    <rect x="14" y="80" width="3"  height="2"  fill="#0a0a0a" opacity="0.22"/>
    <rect x="38" y="83" width="3"  height="2"  fill="#0a0a0a" opacity="0.28"/>

  </g>

  <!-- ═══ VERTICAL DIVIDER ═══ -->
  <line x1="490" y1="110" x2="490" y2="517" stroke="#dddddd" stroke-width="1.5"/>

  <!-- ═══ TEXT BLOCK ═══ -->
  <!-- "Frontier" -->
  <text x="548" y="255"
        font-family="Georgia,'Times New Roman',serif"
        font-size="108" font-weight="700"
        fill="#0a0a0a">Frontier</text>
  <!-- "Manifesto" -->
  <text x="548" y="375"
        font-family="Georgia,'Times New Roman',serif"
        font-size="108" font-weight="700"
        fill="#0a0a0a">Manifesto</text>

  <!-- Thin rule -->
  <line x1="548" y1="403" x2="1120" y2="403" stroke="#cccccc" stroke-width="1"/>

  <!-- Subtitle line 1 -->
  <text x="548" y="448"
        font-family="Georgia,'Times New Roman',serif"
        font-size="28" fill="#888888">A framework for human and agentic</text>
  <!-- Subtitle line 2 -->
  <text x="548" y="484"
        font-family="Georgia,'Times New Roman',serif"
        font-size="28" fill="#888888">co-work in the workplace.</text>

  <!-- URL -->
  <text x="548" y="548"
        font-family="Georgia,'Times New Roman',serif"
        font-size="22" fill="#aaaaaa">frontiermanifesto.ai</text>

</svg>
